# Blender 4.4.3
# www.blender.org
mtllib chair.mtl
o Cube
v 0.205000 0.400000 -0.175000
v 0.205000 0.450000 0.175000
v -0.205000 0.400000 -0.175000
v -0.205000 0.450000 0.175000
v 0.205000 0.450000 -0.225000
v -0.205000 0.450000 -0.225000
v -0.205000 0.900000 -0.275000
v 0.205000 0.900000 -0.275000
v -0.205000 0.400000 0.225000
v 0.205000 0.400000 0.225000
v 0.225000 0.400000 -0.175000
v 0.225000 0.450000 0.175000
v 0.225000 0.450000 -0.225000
v 0.225000 0.900000 -0.275000
v 0.225000 0.400000 0.225000
v -0.225000 0.400000 -0.175000
v -0.225000 0.450000 0.175000
v -0.225000 0.450000 -0.225000
v -0.225000 0.900000 -0.275000
v -0.225000 0.400000 0.225000
v 0.205000 0.400000 0.135000
v 0.205000 0.360000 0.175000
v 0.205000 0.394641 0.155000
v 0.205000 0.380000 0.169641
v -0.205000 0.360000 0.175000
v -0.205000 0.400000 0.135000
v -0.205000 0.380000 0.169641
v -0.205000 0.394641 0.155000
v -0.205000 0.410000 0.225000
v -0.205000 0.450000 0.185000
v -0.205000 0.430000 0.219641
v -0.205000 0.444641 0.205000
v 0.205000 0.410000 0.225000
v 0.205000 0.450000 0.185000
v 0.205000 0.430000 0.219641
v 0.205000 0.444641 0.205000
v 0.225000 0.360000 0.175000
v 0.225000 0.400000 0.135000
v 0.225000 0.440000 0.175000
v 0.225000 0.400000 0.215000
v 0.225000 0.380000 0.169641
v 0.225000 0.394641 0.155000
v 0.225000 0.450000 0.185000
v 0.225000 0.410000 0.225000
v 0.225000 0.444641 0.205000
v 0.225000 0.430000 0.219641
v -0.225000 0.400000 0.135000
v -0.225000 0.360000 0.175000
v -0.225000 0.400000 0.215000
v -0.225000 0.440000 0.175000
v -0.225000 0.394641 0.155000
v -0.225000 0.380000 0.169641
v -0.225000 0.410000 0.225000
v -0.225000 0.450000 0.185000
v -0.225000 0.430000 0.219641
v -0.225000 0.444641 0.205000
v 0.205000 0.450000 -0.135000
v 0.205000 0.490000 -0.175000
v 0.205000 0.455359 -0.155000
v 0.205000 0.470000 -0.169641
v -0.205000 0.490000 -0.175000
v -0.205000 0.450000 -0.135000
v -0.205000 0.470000 -0.169641
v -0.205000 0.455359 -0.155000
v 0.225000 0.490000 -0.175000
v 0.225000 0.450000 -0.135000
v 0.225000 0.410000 -0.175000
v 0.225000 0.450000 -0.215000
v 0.225000 0.470000 -0.169641
v 0.225000 0.455359 -0.155000
v -0.225000 0.450000 -0.135000
v -0.225000 0.490000 -0.175000
v -0.225000 0.450000 -0.215000
v -0.225000 0.410000 -0.175000
v -0.225000 0.455359 -0.155000
v -0.225000 0.470000 -0.169641
v 0.205000 0.440000 -0.225000
v 0.205000 0.400000 -0.185000
v 0.205000 0.360000 -0.225000
v 0.165000 0.400000 -0.225000
v 0.205000 0.420000 -0.219641
v 0.205000 0.405359 -0.205000
v -0.205000 0.400000 -0.185000
v -0.205000 0.440000 -0.225000
v -0.165000 0.400000 -0.225000
v -0.205000 0.360000 -0.225000
v -0.205000 0.405359 -0.205000
v -0.205000 0.420000 -0.219641
v 0.225000 0.400000 -0.185000
v 0.225000 0.440000 -0.225000
v 0.225000 0.405359 -0.205000
v 0.225000 0.420000 -0.219641
v -0.225000 0.440000 -0.225000
v -0.225000 0.400000 -0.185000
v -0.225000 0.420000 -0.219641
v -0.225000 0.405359 -0.205000
v -0.205000 0.900000 -0.265000
v -0.205000 0.890185 -0.253085
v 0.205000 0.900000 -0.265000
v 0.205000 0.890185 -0.253085
v 0.225000 0.900000 -0.265000
v 0.225000 0.890185 -0.253085
v -0.225000 0.890185 -0.253085
v -0.225000 0.900000 -0.265000
v 0.205000 0.009923 -0.223760
v 0.205000 0.000000 -0.235000
v -0.205000 0.000000 -0.235000
v -0.205000 0.009923 -0.223760
v 0.205000 0.000000 -0.265000
v 0.205000 0.009905 -0.273624
v -0.205000 0.009905 -0.273624
v -0.205000 0.000000 -0.265000
v -0.205000 0.000000 0.235000
v -0.205000 0.009905 0.223624
v 0.205000 0.009905 0.223624
v 0.205000 0.000000 0.235000
v -0.205000 0.009923 0.273760
v -0.205000 0.000000 0.265000
v 0.205000 0.000000 0.265000
v 0.205000 0.009923 0.273760
v 0.225000 0.000000 0.235000
v 0.225000 0.009905 0.223624
v 0.225000 0.009923 0.273760
v 0.225000 0.000000 0.265000
v -0.225000 0.009905 0.223624
v -0.225000 0.000000 0.235000
v -0.225000 0.000000 0.265000
v -0.225000 0.009923 0.273760
vn 0.2705 -0.9176 0.2914
vn -0.0000 1.0000 -0.0000
vn -0.2705 -0.9176 0.2914
vn -0.0000 -0.0553 -0.9985
vn -0.0000 0.6669 -0.7451
vn -0.0000 0.0621 0.9981
vn 0.7071 -0.7071 -0.0000
vn 0.7071 0.7071 -0.0000
vn 0.7198 -0.0384 -0.6932
vn 0.5718 0.5472 -0.6113
vn 0.7214 0.0430 0.6912
vn -0.7071 -0.7071 -0.0000
vn -0.7071 0.7071 -0.0000
vn -0.7198 -0.0384 -0.6932
vn -0.5718 0.5472 -0.6113
vn -0.7214 0.0430 0.6912
vn -0.0000 -0.9914 -0.1305
vn -0.0000 -0.1986 -0.9801
vn -0.0000 -0.8660 -0.5000
vn -0.0000 -0.5000 -0.8660
vn -0.0000 0.1305 0.9914
vn -0.0000 0.9914 0.1305
vn -0.0000 0.5000 0.8660
vn -0.0000 0.8660 0.5000
vn 0.7213 -0.1375 -0.6788
vn 0.7377 -0.6694 -0.0881
vn 1.0000 -0.0000 -0.0000
vn 0.6532 -0.3786 -0.6557
vn 0.6532 -0.6557 -0.3786
vn 0.6789 0.7280 0.0958
vn 0.6789 0.0958 0.7280
vn 0.6532 0.6557 0.3786
vn 0.6532 0.3786 0.6557
vn -0.7377 -0.6694 -0.0881
vn -0.7213 -0.1375 -0.6788
vn -1.0000 -0.0000 -0.0000
vn -0.6532 -0.6557 -0.3786
vn -0.6532 -0.3786 -0.6557
vn -0.6789 0.0958 0.7280
vn -0.6789 0.7280 0.0958
vn -0.6532 0.3786 0.6557
vn -0.6532 0.6557 0.3786
vn -0.0000 0.2253 0.9743
vn 0.7150 0.1575 0.6812
vn 0.7377 0.6694 0.0881
vn -0.7377 0.6694 0.0881
vn -0.7150 0.1575 0.6812
vn 0.0801 -0.0663 -0.9946
vn 0.6675 -0.6907 -0.2783
vn 0.7007 0.0658 -0.7104
vn 0.1563 0.0488 -0.9865
vn 0.3019 -0.2916 -0.9076
vn 0.3318 -0.5550 -0.7628
vn -0.6675 -0.6907 -0.2783
vn -0.0801 -0.0663 -0.9946
vn -0.1563 0.0488 -0.9865
vn -0.7007 0.0658 -0.7104
vn -0.3318 -0.5550 -0.7628
vn -0.3019 -0.2916 -0.9076
vn 0.6789 -0.7280 -0.0958
vn 0.6789 -0.0958 -0.7280
vn -0.6789 -0.0958 -0.7280
vn -0.6789 -0.7280 -0.0958
vn -0.0000 0.9412 0.3377
vn -0.0000 0.5118 0.8591
vn 0.6384 0.7245 0.2600
vn 0.6384 0.3939 0.6613
vn -0.6384 0.3939 0.6613
vn -0.6384 0.7245 0.2600
vn 0.6355 -0.3606 0.6827
vn 0.6355 -0.7222 0.2732
vn -0.6355 -0.7222 0.2732
vn -0.6355 -0.3606 0.6827
vn 0.6247 -0.7107 -0.3235
vn 0.6236 -0.2277 -0.7479
vn -0.6236 -0.2277 -0.7479
vn -0.6247 -0.7107 -0.3235
vn -0.0000 -0.9365 -0.3506
vn -0.0000 -0.4761 -0.8794
vn -0.0000 -0.2950 0.9555
vn -0.0000 -0.9115 0.4112
vn 0.6360 -0.7227 -0.2705
vn 0.6360 -0.3674 -0.6786
vn 0.6252 -0.2302 0.7457
vn 0.6252 -0.7114 0.3209
vn -0.6360 -0.3674 -0.6786
vn -0.6360 -0.7227 -0.2705
vn -0.6252 -0.7114 0.3209
vn -0.6252 -0.2302 0.7457
vt 0.625000 0.500000
vt 0.375000 0.750000
vt 0.425000 0.750000
vt 0.425000 1.000000
vt 0.375000 1.000000
vt 0.125000 0.750000
vt 0.375000 0.721429
vt 0.375000 0.500000
vt 0.625000 0.750000
vt 0.875000 0.500000
vt 0.575000 0.500000
vt 0.375000 0.250000
vt 0.375000 0.250000
vt 0.125000 0.500000
vt 0.625000 0.250000
vt 0.425000 0.500000
vt 0.383932 0.500000
vt 0.475000 0.500000
vt 0.575000 0.250000
vt 0.875000 0.750000
vt 0.625000 0.500000
vt 0.575000 0.750000
vt 0.616068 0.750000
vt 0.525000 0.750000
vt 0.375000 0.000000
vt 0.425000 0.250000
vt 0.475000 0.250000
vt 0.383932 0.250000
vt 0.625000 0.250000
vt 0.625000 0.528571
vt 0.875000 0.528571
vt 0.125000 0.721429
vt 0.375000 0.274390
vt 0.375000 0.475610
vt 0.625000 0.000000
vt 0.575000 0.000000
vt 0.425000 0.000000
vt 0.525000 0.000000
vt 0.598205 0.000000
vt 0.375000 0.028571
vt 0.625000 0.221429
vt 0.875000 0.500000
vt 0.625000 0.528571
vt 0.375000 0.274390
vt 0.375000 0.475610
vt 0.375000 0.735714
vt 0.125000 0.735714
vt 0.525000 1.000000
vt 0.525000 1.000000
vt 0.625000 1.000000
vt 0.525000 0.750000
vt 0.625000 0.235714
vt 0.625000 0.246172
vt 0.625000 0.514286
vt 0.875000 0.514286
vt 0.401795 0.500000
s 1
usemtl Material
f 8/1/5 99/1/64 101/1/66 14/1/10
f 10/2/6 33/3/21 29/4/21 9/5/6
f 25/6/18 114/6/79 125/6/86 48/6/35
f 21/7/17 1/8/1 11/8/7 38/7/26
f 2/9/2 34/9/22 43/9/30 12/9/8
f 61/10/43 98/10/65 103/10/68 72/10/47
f 77/11/48 5/1/4 13/1/9 90/11/61
f 3/12/3 83/12/54 86/12/57 111/12/76 112/12/77 107/12/72 108/13/73
f 1/8/1 3/14/3 108/14/73 105/8/70
f 115/2/79 22/2/18 37/2/25 122/2/83
f 97/10/64 7/10/5 19/10/15 104/10/69
f 5/1/4 6/15/4 7/15/5 8/1/5
f 68/1/27 67/16/27 11/8/7 89/8/60 91/17/29 92/18/28 90/11/61 13/1/9
f 65/1/44 68/1/27 13/1/9 14/1/10 101/1/66 102/1/67
f 79/8/50 78/8/49 1/8/1 105/8/70 106/8/71 109/8/74 110/8/75
f 1/8/1 78/8/49 89/8/60 11/8/7
f 6/15/4 84/19/55 93/19/62 18/15/14
f 83/12/54 3/12/3 16/12/12 94/12/63
f 2/9/2 4/20/2 30/20/22 34/9/22
f 100/1/65 58/1/43 65/21/44 102/1/67
f 33/3/21 10/2/6 15/2/11 44/3/31
f 40/2/27 39/22/27 12/9/8 43/9/30 45/23/32 46/24/33 44/3/31 15/2/11
f 113/6/78 118/6/81 127/6/88 126/6/87
f 9/5/6 29/4/21 53/4/39 20/5/16
f 10/2/6 9/5/6 117/5/80 120/2/80
f 117/5/80 9/5/6 20/5/16 128/5/89
f 20/25/16 49/25/36 48/25/35 125/25/86 126/25/87 127/25/88 128/25/89
f 16/12/12 74/26/36 73/15/36 18/15/14 93/19/62 95/27/38 96/28/37 94/12/63
f 18/15/14 73/15/36 72/29/47 103/15/68 104/15/69 19/15/15
f 5/1/4 8/1/5 14/1/10 13/1/9
f 57/30/22 62/31/22 4/20/2 2/9/2
f 37/2/25 40/2/27 15/2/11 123/2/84 124/2/85 121/2/82 122/2/83
f 3/14/3 26/32/17 47/32/34 16/14/12
f 85/33/56 84/19/55 6/15/4 5/1/4 77/11/48 80/34/51
f 4/20/2 62/31/22 71/31/46 17/20/13
f 3/14/3 1/8/1 21/7/17 26/32/17
f 17/35/13 50/36/36 49/25/36 20/25/16 53/37/39 55/38/41 56/39/42 54/35/40
f 47/40/34 50/36/36 17/35/13 71/41/46 74/26/36 16/12/12
f 61/10/43 58/21/43 100/1/65 98/42/65
f 7/15/5 6/15/4 18/15/14 19/15/15
f 30/20/22 4/20/2 17/20/13 54/20/40
f 11/8/7 67/16/27 66/43/45 12/9/8 39/22/27 38/7/26
f 10/2/6 120/2/80 123/2/84 15/2/11
f 86/12/57 85/44/56 80/45/51 79/8/50 110/8/75 111/12/76
f 119/2/81 116/2/78 121/2/82 124/2/85
f 37/2/25 41/2/28 42/2/29 38/2/26 39/22/27 40/2/27
f 47/25/34 51/25/37 52/25/38 48/25/35 49/25/36 50/25/36
f 26/32/17 21/7/17 23/46/19 28/47/19
f 28/47/19 23/46/19 24/2/20 27/6/20
f 27/6/20 24/2/20 22/2/18 25/6/18
f 53/4/39 29/4/21 31/48/23 55/49/41
f 55/49/41 31/48/23 32/50/24 56/50/42
f 56/20/42 32/20/24 30/20/22 54/20/40
f 34/9/22 30/20/22 32/20/24 36/9/24
f 36/9/24 32/50/24 31/49/23 35/51/23
f 35/51/23 31/49/23 29/4/21 33/3/21
f 33/3/21 44/3/31 46/24/33 35/24/23
f 35/24/23 46/24/33 45/23/32 36/9/24
f 36/9/24 45/23/32 43/9/30 34/9/22
f 37/2/25 22/2/18 24/2/20 41/2/28
f 41/2/28 24/2/20 23/46/19 42/46/29
f 42/46/29 23/46/19 21/7/17 38/7/26
f 47/32/34 26/32/17 28/47/19 51/47/37
f 51/47/37 28/47/19 27/6/20 52/6/38
f 52/6/38 27/6/20 25/6/18 48/6/35
f 113/6/78 116/2/78 119/2/81 118/6/81
f 65/21/44 69/1/33 70/1/32 66/1/45 67/16/27 68/1/27
f 71/41/46 75/52/42 76/53/41 72/15/47 73/15/36 74/26/36
f 62/31/22 57/30/22 59/54/24 64/55/24
f 64/55/24 59/54/24 60/1/23 63/10/23
f 63/10/23 60/1/23 58/21/43 61/10/43
f 65/21/44 58/1/43 60/1/23 69/1/33
f 69/1/33 60/1/23 59/54/24 70/54/32
f 70/54/32 59/54/24 57/43/22 66/30/45
f 61/10/43 72/10/47 76/10/41 63/10/23
f 63/10/23 76/10/41 75/55/42 64/55/24
f 64/55/24 75/55/42 71/31/46 62/31/22
f 57/43/22 2/9/2 12/9/8 66/30/45
f 77/11/48 81/18/52 82/56/53 78/8/49 79/8/50 80/45/51
f 83/12/54 87/12/58 88/12/59 84/12/55 85/33/56 86/12/57
f 83/12/54 94/12/63 96/28/37 87/12/58
f 87/12/58 96/28/37 95/27/38 88/27/59
f 88/27/59 95/27/38 93/19/62 84/19/55
f 89/8/60 78/8/49 82/8/53 91/17/29
f 91/17/29 82/8/53 81/18/52 92/18/28
f 92/18/28 81/18/52 77/11/48 90/11/61
f 25/6/18 22/2/18 115/2/79 114/6/79
f 100/1/65 102/1/67 101/1/66 99/1/64
f 98/42/65 100/1/65 99/1/64 97/10/64
f 103/10/68 98/10/65 97/10/64 104/10/69
f 97/10/64 99/1/64 8/1/5 7/10/5
f 105/8/70 108/14/73 107/14/72 106/8/71
f 109/8/74 112/14/77 111/14/76 110/8/75
f 114/6/79 115/2/79 116/2/78 113/6/78
f 118/6/81 119/2/81 120/2/80 117/6/80
f 115/2/79 122/2/83 121/2/82 116/2/78
f 123/2/84 120/2/80 119/2/81 124/2/85
f 117/6/80 128/6/89 127/6/88 118/6/81
f 125/6/86 114/6/79 113/6/78 126/6/87
f 106/8/71 107/14/72 112/14/77 109/8/74
